<svg width="139" height="38" viewBox="0 0 139 38" fill="none" xmlns="http://www.w3.org/2000/svg">
<rect width="139" height="38" fill="#FFC94A"/>
<path d="M5.25 4.5H26V10.5H14.25V15.7H24.15V21.1H14.25V26.9H25.95V33H5.25V4.5ZM46.3164 26.75H38.0164L36.5164 33H27.3164L36.5164 4.5H48.2664L57.0664 33H47.8164L46.3164 26.75ZM42.1164 10.65L39.1664 21.2H45.1164L42.3164 10.65H42.1164ZM83.7203 17.2V31.45C81.487 32.1833 79.3703 32.7167 77.3703 33.05C75.3703 33.3833 73.687 33.55 72.3203 33.55C67.787 33.55 64.237 32.3667 61.6703 30C59.1036 27.6333 57.8203 24 57.8203 19.1C57.8203 14.1 59.1703 10.3667 61.8703 7.9C64.5703 5.4 68.3703 4.15 73.2703 4.15C75.837 4.15 78.9203 4.53333 82.5203 5.3C82.5203 5.96667 82.4536 6.96667 82.3203 8.3C82.187 9.6 82.0536 10.5167 81.9203 11.05L80.1203 11C77.9203 10.9333 76.2036 10.9 74.9703 10.9C71.2703 10.9 69.2536 11.1167 68.9203 11.55C68.387 12.1833 68.0036 13.1667 67.7703 14.5C67.5703 15.8333 67.4703 17.1167 67.4703 18.35C67.4703 20.5833 67.7203 22.3167 68.2203 23.55C68.7203 24.7833 69.487 25.65 70.5203 26.15C71.5536 26.65 72.9536 26.9 74.7203 26.9H74.9203V17.2H83.7203ZM101.798 33H92.7977V10.75H84.7477V4.5H109.848V10.75H101.798V33ZM134.344 32.05C133.111 32.5833 131.677 32.9667 130.044 33.2C128.411 33.4333 126.894 33.55 125.494 33.55C120.961 33.55 117.411 32.3667 114.844 30C112.277 27.6333 110.994 24 110.994 19.1C110.994 14.1 112.344 10.3667 115.044 7.9C117.744 5.4 121.544 4.15 126.444 4.15C128.777 4.15 131.211 4.46667 133.744 5.1C133.744 5.76666 133.677 6.76666 133.544 8.1C133.411 9.4 133.277 10.3167 133.144 10.85H129.994C127.694 10.85 125.877 10.9 124.544 11C123.244 11.0667 122.461 11.2167 122.194 11.45C121.694 11.9167 121.311 12.8667 121.044 14.3C120.777 15.7 120.644 17.05 120.644 18.35C120.644 20.6167 120.927 22.3667 121.494 23.6C122.061 24.8 122.777 25.6 123.644 26C124.477 26.4 125.861 26.6 127.794 26.6C129.327 26.6 131.327 26.4667 133.794 26.2L134.344 32.05Z" fill="#795458"/>
</svg>
