<svg width="151" height="37" viewBox="0 0 151 37" fill="none" xmlns="http://www.w3.org/2000/svg">
<rect width="151" height="37" fill="#FFC94A"/>
<path d="M4.68555 4.5H25.4355V10.5H13.6855V15.7H23.5855V21.1H13.6855V26.9H25.3855V33H4.68555V4.5ZM45.752 26.75H37.452L35.952 33H26.752L35.952 4.5H47.702L56.502 33H47.252L45.752 26.75ZM41.552 10.65L38.602 21.2H44.552L41.752 10.65H41.552ZM83.1559 17.2V31.45C80.9225 32.1833 78.8059 32.7167 76.8059 33.05C74.8059 33.3833 73.1225 33.55 71.7559 33.55C67.2225 33.55 63.6725 32.3667 61.1059 30C58.5392 27.6333 57.2559 24 57.2559 19.1C57.2559 14.1 58.6059 10.3667 61.3059 7.9C64.0059 5.4 67.8059 4.15 72.7059 4.15C75.2725 4.15 78.3559 4.53333 81.9559 5.3C81.9559 5.96667 81.8892 6.96667 81.7559 8.3C81.6225 9.6 81.4892 10.5167 81.3559 11.05L79.5559 11C77.3559 10.9333 75.6392 10.9 74.4059 10.9C70.7059 10.9 68.6892 11.1167 68.3559 11.55C67.8225 12.1833 67.4392 13.1667 67.2059 14.5C67.0059 15.8333 66.9059 17.1167 66.9059 18.35C66.9059 20.5833 67.1559 22.3167 67.6559 23.55C68.1559 24.7833 68.9225 25.65 69.9559 26.15C70.9892 26.65 72.3892 26.9 74.1559 26.9H74.3559V17.2H83.1559ZM101.233 33H92.2332V10.75H84.1832V4.5H109.283V10.75H101.233V33ZM133.78 32.05C132.546 32.5833 131.113 32.9667 129.48 33.2C127.846 33.4333 126.33 33.55 124.93 33.55C120.396 33.55 116.846 32.3667 114.28 30C111.713 27.6333 110.43 24 110.43 19.1C110.43 14.1 111.78 10.3667 114.48 7.9C117.18 5.4 120.98 4.15 125.88 4.15C128.213 4.15 130.646 4.46667 133.18 5.1C133.18 5.76666 133.113 6.76666 132.98 8.1C132.846 9.4 132.713 10.3167 132.58 10.85H129.43C127.13 10.85 125.313 10.9 123.98 11C122.68 11.0667 121.896 11.2167 121.63 11.45C121.13 11.9167 120.746 12.8667 120.48 14.3C120.213 15.7 120.08 17.05 120.08 18.35C120.08 20.6167 120.363 22.3667 120.93 23.6C121.496 24.8 122.213 25.6 123.08 26C123.913 26.4 125.296 26.6 127.23 26.6C128.763 26.6 130.763 26.4667 133.23 26.2L133.78 32.05Z" fill="#795458"/>
<path d="M141.7 33.4C140.333 33.4 139.2 32.95 138.3 32.05C137.433 31.15 137 29.9333 137 28.4C137 27.0667 137.45 25.95 138.35 25.05C139.283 24.1167 140.45 23.65 141.85 23.65C143.183 23.65 144.3 24.1167 145.2 25.05C146.1 25.95 146.55 27.0667 146.55 28.4C146.55 29.9333 146.1 31.15 145.2 32.05C144.333 32.95 143.167 33.4 141.7 33.4Z" fill="#746AC4"/>
</svg>
