<svg width="151" height="52" viewBox="0 0 151 52" fill="none" xmlns="http://www.w3.org/2000/svg">
<rect width="151" height="37" fill="#FFC94A"/>
<path d="M4.68555 4.5H25.4355V10.5H13.6855V15.7H23.5855V21.1H13.6855V26.9H25.3855V33H4.68555V4.5ZM45.752 26.75H37.452L35.952 33H26.752L35.952 4.5H47.702L56.502 33H47.252L45.752 26.75ZM41.552 10.65L38.602 21.2H44.552L41.752 10.65H41.552ZM83.1559 17.2V31.45C80.9225 32.1833 78.8059 32.7167 76.8059 33.05C74.8059 33.3833 73.1225 33.55 71.7559 33.55C67.2225 33.55 63.6725 32.3667 61.1059 30C58.5392 27.6333 57.2559 24 57.2559 19.1C57.2559 14.1 58.6059 10.3667 61.3059 7.9C64.0059 5.4 67.8059 4.15 72.7059 4.15C75.2725 4.15 78.3559 4.53333 81.9559 5.3C81.9559 5.96667 81.8892 6.96667 81.7559 8.3C81.6225 9.6 81.4892 10.5167 81.3559 11.05L79.5559 11C77.3559 10.9333 75.6392 10.9 74.4059 10.9C70.7059 10.9 68.6892 11.1167 68.3559 11.55C67.8225 12.1833 67.4392 13.1667 67.2059 14.5C67.0059 15.8333 66.9059 17.1167 66.9059 18.35C66.9059 20.5833 67.1559 22.3167 67.6559 23.55C68.1559 24.7833 68.9225 25.65 69.9559 26.15C70.9892 26.65 72.3892 26.9 74.1559 26.9H74.3559V17.2H83.1559ZM101.233 33H92.2332V10.75H84.1832V4.5H109.283V10.75H101.233V33ZM133.78 32.05C132.546 32.5833 131.113 32.9667 129.48 33.2C127.846 33.4333 126.33 33.55 124.93 33.55C120.396 33.55 116.846 32.3667 114.28 30C111.713 27.6333 110.43 24 110.43 19.1C110.43 14.1 111.78 10.3667 114.48 7.9C117.18 5.4 120.98 4.15 125.88 4.15C128.213 4.15 130.646 4.46667 133.18 5.1C133.18 5.76666 133.113 6.76666 132.98 8.1C132.846 9.4 132.713 10.3167 132.58 10.85H129.43C127.13 10.85 125.313 10.9 123.98 11C122.68 11.0667 121.896 11.2167 121.63 11.45C121.13 11.9167 120.746 12.8667 120.48 14.3C120.213 15.7 120.08 17.05 120.08 18.35C120.08 20.6167 120.363 22.3667 120.93 23.6C121.496 24.8 122.213 25.6 123.08 26C123.913 26.4 125.296 26.6 127.23 26.6C128.763 26.6 130.763 26.4667 133.23 26.2L133.78 32.05Z" fill="#795458"/>
<path d="M141.7 33.4C140.333 33.4 139.2 32.95 138.3 32.05C137.433 31.15 137 29.9333 137 28.4C137 27.0667 137.45 25.95 138.35 25.05C139.283 24.1167 140.45 23.65 141.85 23.65C143.183 23.65 144.3 24.1167 145.2 25.05C146.1 25.95 146.55 27.0667 146.55 28.4C146.55 29.9333 146.1 31.15 145.2 32.05C144.333 32.95 143.167 33.4 141.7 33.4Z" fill="#746AC4"/>
<path d="M6.684 41.33H10.194V42.104H7.647V43.67H9.96V44.435H7.647V46.226H10.221V47H6.684V41.33ZM11.1917 43.13C11.4677 42.98 11.7317 42.869 11.9837 42.797C12.2417 42.719 12.5267 42.68 12.8387 42.68C13.0787 42.68 13.2977 42.707 13.4957 42.761C13.6997 42.815 13.8737 42.902 14.0177 43.022C14.1617 43.142 14.2727 43.304 14.3507 43.508C14.4347 43.706 14.4767 43.949 14.4767 44.237V47H13.7297L13.6307 46.541H13.6037C13.4357 46.733 13.2407 46.874 13.0187 46.964C12.7967 47.048 12.5507 47.09 12.2807 47.09C11.8547 47.09 11.5097 46.976 11.2457 46.748C10.9877 46.52 10.8587 46.217 10.8587 45.839C10.8587 45.605 10.9067 45.404 11.0027 45.236C11.0987 45.062 11.2337 44.918 11.4077 44.804C11.5817 44.69 11.7887 44.606 12.0287 44.552C12.2687 44.492 12.5327 44.462 12.8207 44.462H13.5407V44.138C13.5407 43.868 13.4687 43.682 13.3247 43.58C13.1807 43.472 12.9827 43.418 12.7307 43.418C12.5747 43.418 12.3977 43.445 12.1997 43.499C12.0077 43.547 11.7857 43.64 11.5337 43.778L11.1917 43.13ZM13.5497 45.074L12.9827 45.083C12.5567 45.095 12.2567 45.17 12.0827 45.308C11.9087 45.446 11.8217 45.608 11.8217 45.794C11.8217 45.914 11.8397 46.013 11.8757 46.091C11.9177 46.169 11.9717 46.232 12.0377 46.28C12.1037 46.328 12.1787 46.364 12.2627 46.388C12.3527 46.406 12.4427 46.415 12.5327 46.415C12.7187 46.415 12.9017 46.37 13.0817 46.28C13.2677 46.184 13.4237 46.049 13.5497 45.875V45.074ZM18.1297 43.616C17.9377 43.526 17.7577 43.463 17.5897 43.427C17.4277 43.385 17.2657 43.364 17.1037 43.364C16.8517 43.364 16.6597 43.412 16.5277 43.508C16.4017 43.598 16.3387 43.721 16.3387 43.877C16.3387 43.997 16.3867 44.102 16.4827 44.192C16.5787 44.276 16.7767 44.36 17.0767 44.444L17.3467 44.525C17.7367 44.645 18.0307 44.801 18.2287 44.993C18.4327 45.185 18.5347 45.443 18.5347 45.767C18.5347 46.163 18.3847 46.484 18.0847 46.73C17.7847 46.97 17.3737 47.09 16.8517 47.09C16.5697 47.09 16.3057 47.063 16.0597 47.009C15.8197 46.961 15.6037 46.892 15.4117 46.802L15.6277 46.1C15.8017 46.184 15.9877 46.253 16.1857 46.307C16.3837 46.361 16.5877 46.388 16.7977 46.388C17.0557 46.388 17.2567 46.343 17.4007 46.253C17.5447 46.163 17.6167 46.025 17.6167 45.839C17.6167 45.665 17.5507 45.542 17.4187 45.47C17.2927 45.392 17.0947 45.311 16.8247 45.227L16.5457 45.146C16.1677 45.02 15.8857 44.861 15.6997 44.669C15.5197 44.477 15.4297 44.225 15.4297 43.913C15.4297 43.727 15.4687 43.559 15.5467 43.409C15.6247 43.259 15.7327 43.13 15.8707 43.022C16.0087 42.914 16.1737 42.83 16.3657 42.77C16.5637 42.71 16.7797 42.68 17.0137 42.68C17.2357 42.68 17.4607 42.701 17.6887 42.743C17.9227 42.785 18.1387 42.851 18.3367 42.941L18.1297 43.616ZM21.7658 43.436H20.5598V45.731C20.5598 45.941 20.6078 46.082 20.7038 46.154C20.8058 46.226 20.9408 46.262 21.1088 46.262C21.2288 46.262 21.3548 46.25 21.4868 46.226C21.6248 46.196 21.7448 46.163 21.8468 46.127L21.9908 46.811C21.8708 46.859 21.7148 46.904 21.5228 46.946C21.3368 46.982 21.1388 47 20.9288 47C20.4728 47 20.1428 46.907 19.9388 46.721C19.7408 46.529 19.6418 46.247 19.6418 45.875V43.436H18.9938V42.752H19.6418V41.411H20.5598V42.752H21.7658V43.436ZM26.0291 44.777H27.7481L27.4151 43.859C27.3131 43.607 27.2231 43.373 27.1451 43.157C27.0731 42.935 26.9951 42.683 26.9111 42.401H26.8931C26.8031 42.665 26.7191 42.911 26.6411 43.139C26.5631 43.361 26.4731 43.604 26.3711 43.868L26.0291 44.777ZM26.4611 41.33H27.3791L29.5841 47H28.5761L28.0091 45.515H25.7861L25.2281 47H24.2291L26.4611 41.33ZM31.8394 40.565C32.0254 40.565 32.2144 40.592 32.4064 40.646C32.5984 40.694 32.7694 40.757 32.9194 40.835L32.7304 41.465C32.6164 41.417 32.5054 41.378 32.3974 41.348C32.2954 41.318 32.1844 41.303 32.0644 41.303C31.8004 41.303 31.6084 41.378 31.4884 41.528C31.3744 41.672 31.3174 41.924 31.3174 42.284V42.752H32.5414V43.436H31.3174V47H30.3994V43.436H29.7694V42.752H30.3994V42.032C30.3994 41.564 30.5254 41.204 30.7774 40.952C31.0294 40.694 31.3834 40.565 31.8394 40.565ZM33.1453 47V42.752H33.8473L33.9823 43.571C34.0843 43.319 34.2493 43.109 34.4773 42.941C34.7053 42.767 34.9813 42.68 35.3053 42.68C35.4493 42.68 35.5723 42.692 35.6743 42.716C35.7823 42.74 35.8783 42.773 35.9623 42.815L35.7913 43.589C35.7193 43.553 35.6353 43.523 35.5393 43.499C35.4493 43.475 35.3443 43.463 35.2243 43.463C34.8943 43.463 34.6183 43.577 34.3963 43.805C34.1743 44.027 34.0633 44.366 34.0633 44.822V47H33.1453ZM36.6108 47V42.752H37.5378V47H36.6108ZM37.0788 41.699C36.9168 41.699 36.7878 41.651 36.6918 41.555C36.5958 41.453 36.5478 41.327 36.5478 41.177C36.5478 41.027 36.5958 40.904 36.6918 40.808C36.7878 40.706 36.9168 40.655 37.0788 40.655C37.2348 40.655 37.3608 40.706 37.4568 40.808C37.5588 40.904 37.6098 41.027 37.6098 41.177C37.6098 41.333 37.5588 41.459 37.4568 41.555C37.3608 41.651 37.2348 41.699 37.0788 41.699ZM40.9025 46.388C41.0945 46.388 41.2625 46.367 41.4065 46.325C41.5565 46.277 41.6915 46.223 41.8115 46.163L42.0005 46.829C41.8565 46.907 41.6825 46.97 41.4785 47.018C41.2745 47.066 41.0495 47.09 40.8035 47.09C40.4915 47.09 40.1975 47.045 39.9215 46.955C39.6515 46.859 39.4145 46.721 39.2105 46.541C39.0125 46.355 38.8535 46.124 38.7335 45.848C38.6195 45.572 38.5625 45.251 38.5625 44.885C38.5625 44.549 38.6165 44.246 38.7245 43.976C38.8325 43.7 38.9855 43.466 39.1835 43.274C39.3815 43.082 39.6185 42.935 39.8945 42.833C40.1705 42.731 40.4735 42.68 40.8035 42.68C40.9895 42.68 41.1755 42.695 41.3615 42.725C41.5535 42.755 41.7635 42.824 41.9915 42.932L41.7845 43.607C41.5025 43.451 41.2085 43.373 40.9025 43.373C40.4885 43.373 40.1525 43.502 39.8945 43.76C39.6365 44.018 39.5075 44.384 39.5075 44.858C39.5075 45.146 39.5465 45.389 39.6245 45.587C39.7085 45.779 39.8165 45.935 39.9485 46.055C40.0805 46.175 40.2275 46.262 40.3895 46.316C40.5575 46.364 40.7285 46.388 40.9025 46.388ZM42.8148 43.13C43.0908 42.98 43.3548 42.869 43.6068 42.797C43.8648 42.719 44.1498 42.68 44.4618 42.68C44.7018 42.68 44.9208 42.707 45.1188 42.761C45.3228 42.815 45.4968 42.902 45.6408 43.022C45.7848 43.142 45.8958 43.304 45.9738 43.508C46.0578 43.706 46.0998 43.949 46.0998 44.237V47H45.3528L45.2538 46.541H45.2268C45.0588 46.733 44.8638 46.874 44.6418 46.964C44.4198 47.048 44.1738 47.09 43.9038 47.09C43.4778 47.09 43.1328 46.976 42.8688 46.748C42.6108 46.52 42.4818 46.217 42.4818 45.839C42.4818 45.605 42.5298 45.404 42.6258 45.236C42.7218 45.062 42.8568 44.918 43.0308 44.804C43.2048 44.69 43.4118 44.606 43.6518 44.552C43.8918 44.492 44.1558 44.462 44.4438 44.462H45.1638V44.138C45.1638 43.868 45.0918 43.682 44.9478 43.58C44.8038 43.472 44.6058 43.418 44.3538 43.418C44.1978 43.418 44.0208 43.445 43.8228 43.499C43.6308 43.547 43.4088 43.64 43.1568 43.778L42.8148 43.13ZM45.1728 45.074L44.6058 45.083C44.1798 45.095 43.8798 45.17 43.7058 45.308C43.5318 45.446 43.4448 45.608 43.4448 45.794C43.4448 45.914 43.4628 46.013 43.4988 46.091C43.5408 46.169 43.5948 46.232 43.6608 46.28C43.7268 46.328 43.8018 46.364 43.8858 46.388C43.9758 46.406 44.0658 46.415 44.1558 46.415C44.3418 46.415 44.5248 46.37 44.7048 46.28C44.8908 46.184 45.0468 46.049 45.1728 45.875V45.074ZM48.1438 47H47.2168V42.752H47.9458L48.0718 43.319C48.2818 43.115 48.5008 42.959 48.7288 42.851C48.9628 42.737 49.2268 42.68 49.5208 42.68C49.9708 42.68 50.3188 42.803 50.5648 43.049C50.8108 43.295 50.9338 43.646 50.9338 44.102V47H50.0068V44.219C50.0068 43.973 49.9438 43.778 49.8178 43.634C49.6918 43.49 49.5028 43.418 49.2508 43.418C49.0588 43.418 48.8668 43.466 48.6748 43.562C48.4888 43.652 48.3118 43.784 48.1438 43.958V47ZM56.7976 41.24C57.4576 41.24 58.0096 41.351 58.4536 41.573L58.2376 42.284C58.0216 42.182 57.8026 42.107 57.5806 42.059C57.3646 42.011 57.1396 41.987 56.9056 41.987C56.6476 41.987 56.4016 42.026 56.1676 42.104C55.9396 42.182 55.7356 42.308 55.5556 42.482C55.3816 42.656 55.2406 42.881 55.1326 43.157C55.0306 43.433 54.9796 43.772 54.9796 44.174C54.9796 44.876 55.1386 45.413 55.4566 45.785C55.7746 46.151 56.2246 46.334 56.8066 46.334C57.0106 46.334 57.1846 46.325 57.3286 46.307C57.4786 46.283 57.6196 46.247 57.7516 46.199V44.705H56.7256V43.967H58.6606V46.748C58.4206 46.844 58.1506 46.925 57.8506 46.991C57.5506 47.057 57.1996 47.09 56.7976 47.09C56.4016 47.09 56.0296 47.027 55.6816 46.901C55.3336 46.775 55.0306 46.589 54.7726 46.343C54.5146 46.097 54.3106 45.794 54.1606 45.434C54.0166 45.068 53.9446 44.648 53.9446 44.174C53.9446 43.7 54.0166 43.28 54.1606 42.914C54.3046 42.548 54.5026 42.242 54.7546 41.996C55.0126 41.744 55.3156 41.555 55.6636 41.429C56.0116 41.303 56.3896 41.24 56.7976 41.24ZM63.4223 45.038H60.4433V45.074C60.4433 45.506 60.5693 45.833 60.8213 46.055C61.0733 46.277 61.4063 46.388 61.8203 46.388C62.0483 46.388 62.2523 46.37 62.4323 46.334C62.6183 46.292 62.8043 46.229 62.9903 46.145L63.1703 46.82C62.9963 46.898 62.7893 46.961 62.5493 47.009C62.3093 47.063 62.0453 47.09 61.7573 47.09C61.4513 47.09 61.1603 47.048 60.8843 46.964C60.6083 46.88 60.3653 46.748 60.1553 46.568C59.9513 46.388 59.7893 46.16 59.6693 45.884C59.5493 45.608 59.4893 45.278 59.4893 44.894C59.4893 44.564 59.5373 44.264 59.6333 43.994C59.7353 43.718 59.8763 43.484 60.0563 43.292C60.2423 43.094 60.4643 42.944 60.7223 42.842C60.9863 42.734 61.2773 42.68 61.5953 42.68C61.8713 42.68 62.1203 42.725 62.3423 42.815C62.5703 42.905 62.7623 43.034 62.9183 43.202C63.0803 43.364 63.2033 43.565 63.2873 43.805C63.3773 44.039 63.4223 44.3 63.4223 44.588V45.038ZM62.4683 44.39C62.4683 44.246 62.4503 44.111 62.4143 43.985C62.3783 43.859 62.3243 43.751 62.2523 43.661C62.1803 43.565 62.0843 43.49 61.9643 43.436C61.8503 43.376 61.7123 43.346 61.5503 43.346C61.2503 43.346 61.0043 43.442 60.8123 43.634C60.6263 43.826 60.5123 44.084 60.4703 44.408L62.4683 44.39ZM65.2474 47H64.3204V42.752H65.0494L65.1754 43.319C65.3854 43.115 65.6044 42.959 65.8324 42.851C66.0664 42.737 66.3304 42.68 66.6244 42.68C67.0744 42.68 67.4224 42.803 67.6684 43.049C67.9144 43.295 68.0374 43.646 68.0374 44.102V47H67.1104V44.219C67.1104 43.973 67.0474 43.778 66.9214 43.634C66.7954 43.49 66.6064 43.418 66.3544 43.418C66.1624 43.418 65.9704 43.466 65.7784 43.562C65.5924 43.652 65.4154 43.784 65.2474 43.958V47ZM72.8969 45.038H69.9179V45.074C69.9179 45.506 70.0439 45.833 70.2959 46.055C70.5479 46.277 70.8809 46.388 71.2949 46.388C71.5229 46.388 71.7269 46.37 71.9069 46.334C72.0929 46.292 72.2789 46.229 72.4649 46.145L72.6449 46.82C72.4709 46.898 72.2639 46.961 72.0239 47.009C71.7839 47.063 71.5199 47.09 71.2319 47.09C70.9259 47.09 70.6349 47.048 70.3589 46.964C70.0829 46.88 69.8399 46.748 69.6299 46.568C69.4259 46.388 69.2639 46.16 69.1439 45.884C69.0239 45.608 68.9639 45.278 68.9639 44.894C68.9639 44.564 69.0119 44.264 69.1079 43.994C69.2099 43.718 69.3509 43.484 69.5309 43.292C69.7169 43.094 69.9389 42.944 70.1969 42.842C70.4609 42.734 70.7519 42.68 71.0699 42.68C71.3459 42.68 71.5949 42.725 71.8169 42.815C72.0449 42.905 72.2369 43.034 72.3929 43.202C72.5549 43.364 72.6779 43.565 72.7619 43.805C72.8519 44.039 72.8969 44.3 72.8969 44.588V45.038ZM71.9429 44.39C71.9429 44.246 71.9249 44.111 71.8889 43.985C71.8529 43.859 71.7989 43.751 71.7269 43.661C71.6549 43.565 71.5589 43.49 71.4389 43.436C71.3249 43.376 71.1869 43.346 71.0249 43.346C70.7249 43.346 70.4789 43.442 70.2869 43.634C70.1009 43.826 69.9869 44.084 69.9449 44.408L71.9429 44.39ZM73.786 47V42.752H74.488L74.623 43.571C74.725 43.319 74.89 43.109 75.118 42.941C75.346 42.767 75.622 42.68 75.946 42.68C76.09 42.68 76.213 42.692 76.315 42.716C76.423 42.74 76.519 42.773 76.603 42.815L76.432 43.589C76.36 43.553 76.276 43.523 76.18 43.499C76.09 43.475 75.985 43.463 75.865 43.463C75.535 43.463 75.259 43.577 75.037 43.805C74.815 44.027 74.704 44.366 74.704 44.822V47H73.786ZM77.1185 43.13C77.3945 42.98 77.6585 42.869 77.9105 42.797C78.1685 42.719 78.4535 42.68 78.7655 42.68C79.0055 42.68 79.2245 42.707 79.4225 42.761C79.6265 42.815 79.8005 42.902 79.9445 43.022C80.0885 43.142 80.1995 43.304 80.2775 43.508C80.3615 43.706 80.4035 43.949 80.4035 44.237V47H79.6565L79.5575 46.541H79.5305C79.3625 46.733 79.1675 46.874 78.9455 46.964C78.7235 47.048 78.4775 47.09 78.2075 47.09C77.7815 47.09 77.4365 46.976 77.1725 46.748C76.9145 46.52 76.7855 46.217 76.7855 45.839C76.7855 45.605 76.8335 45.404 76.9295 45.236C77.0255 45.062 77.1605 44.918 77.3345 44.804C77.5085 44.69 77.7155 44.606 77.9555 44.552C78.1955 44.492 78.4595 44.462 78.7475 44.462H79.4675V44.138C79.4675 43.868 79.3955 43.682 79.2515 43.58C79.1075 43.472 78.9095 43.418 78.6575 43.418C78.5015 43.418 78.3245 43.445 78.1265 43.499C77.9345 43.547 77.7125 43.64 77.4605 43.778L77.1185 43.13ZM79.4765 45.074L78.9095 45.083C78.4835 45.095 78.1835 45.17 78.0095 45.308C77.8355 45.446 77.7485 45.608 77.7485 45.794C77.7485 45.914 77.7665 46.013 77.8025 46.091C77.8445 46.169 77.8985 46.232 77.9645 46.28C78.0305 46.328 78.1055 46.364 78.1895 46.388C78.2795 46.406 78.3695 46.415 78.4595 46.415C78.6455 46.415 78.8285 46.37 79.0085 46.28C79.1945 46.184 79.3505 46.049 79.4765 45.875V45.074ZM81.6444 47V40.601H82.5534V47H81.6444ZM89.6618 41.33V42.122H87.9518V47H86.9888V42.122H85.3058V41.33H89.6618ZM90.1424 47V42.752H90.8444L90.9794 43.571C91.0814 43.319 91.2464 43.109 91.4744 42.941C91.7024 42.767 91.9784 42.68 92.3024 42.68C92.4464 42.68 92.5694 42.692 92.6714 42.716C92.7794 42.74 92.8754 42.773 92.9594 42.815L92.7884 43.589C92.7164 43.553 92.6324 43.523 92.5364 43.499C92.4464 43.475 92.3414 43.463 92.2214 43.463C91.8914 43.463 91.6154 43.577 91.3934 43.805C91.1714 44.027 91.0604 44.366 91.0604 44.822V47H90.1424ZM93.4749 43.13C93.7509 42.98 94.0149 42.869 94.2669 42.797C94.5249 42.719 94.8099 42.68 95.1219 42.68C95.3619 42.68 95.5809 42.707 95.7789 42.761C95.9829 42.815 96.1569 42.902 96.3009 43.022C96.4449 43.142 96.5559 43.304 96.6339 43.508C96.7179 43.706 96.7599 43.949 96.7599 44.237V47H96.0129L95.9139 46.541H95.8869C95.7189 46.733 95.5239 46.874 95.3019 46.964C95.0799 47.048 94.8339 47.09 94.5639 47.09C94.1379 47.09 93.7929 46.976 93.5289 46.748C93.2709 46.52 93.1419 46.217 93.1419 45.839C93.1419 45.605 93.1899 45.404 93.2859 45.236C93.3819 45.062 93.5169 44.918 93.6909 44.804C93.8649 44.69 94.0719 44.606 94.3119 44.552C94.5519 44.492 94.8159 44.462 95.1039 44.462H95.8239V44.138C95.8239 43.868 95.7519 43.682 95.6079 43.58C95.4639 43.472 95.2659 43.418 95.0139 43.418C94.8579 43.418 94.6809 43.445 94.4829 43.499C94.2909 43.547 94.0689 43.64 93.8169 43.778L93.4749 43.13ZM95.8329 45.074L95.2659 45.083C94.8399 45.095 94.5399 45.17 94.3659 45.308C94.1919 45.446 94.1049 45.608 94.1049 45.794C94.1049 45.914 94.1229 46.013 94.1589 46.091C94.2009 46.169 94.2549 46.232 94.3209 46.28C94.3869 46.328 94.4619 46.364 94.5459 46.388C94.6359 46.406 94.7259 46.415 94.8159 46.415C95.0019 46.415 95.1849 46.37 95.3649 46.28C95.5509 46.184 95.7069 46.049 95.8329 45.875V45.074ZM100.676 40.601H101.603V47H100.874L100.766 46.532H100.73C100.574 46.712 100.4 46.85 100.208 46.946C100.016 47.042 99.767 47.09 99.461 47.09C99.221 47.09 98.99 47.045 98.768 46.955C98.552 46.859 98.357 46.718 98.183 46.532C98.015 46.346 97.88 46.115 97.778 45.839C97.676 45.563 97.625 45.245 97.625 44.885C97.625 44.549 97.667 44.246 97.751 43.976C97.841 43.706 97.967 43.475 98.129 43.283C98.297 43.091 98.501 42.944 98.741 42.842C98.981 42.734 99.254 42.68 99.56 42.68C99.77 42.68 99.974 42.713 100.172 42.779C100.37 42.845 100.538 42.938 100.676 43.058V40.601ZM100.676 43.805C100.424 43.517 100.121 43.373 99.767 43.373C99.611 43.373 99.461 43.4 99.317 43.454C99.173 43.508 99.044 43.595 98.93 43.715C98.816 43.835 98.726 43.988 98.66 44.174C98.594 44.36 98.561 44.588 98.561 44.858C98.561 45.128 98.591 45.359 98.651 45.551C98.717 45.743 98.801 45.902 98.903 46.028C99.005 46.154 99.122 46.247 99.254 46.307C99.392 46.361 99.533 46.388 99.677 46.388C99.893 46.388 100.082 46.34 100.244 46.244C100.412 46.148 100.556 46.013 100.676 45.839V43.805ZM106.462 45.038H103.483V45.074C103.483 45.506 103.609 45.833 103.861 46.055C104.113 46.277 104.446 46.388 104.86 46.388C105.088 46.388 105.292 46.37 105.472 46.334C105.658 46.292 105.844 46.229 106.03 46.145L106.21 46.82C106.036 46.898 105.829 46.961 105.589 47.009C105.349 47.063 105.085 47.09 104.797 47.09C104.491 47.09 104.2 47.048 103.924 46.964C103.648 46.88 103.405 46.748 103.195 46.568C102.991 46.388 102.829 46.16 102.709 45.884C102.589 45.608 102.529 45.278 102.529 44.894C102.529 44.564 102.577 44.264 102.673 43.994C102.775 43.718 102.916 43.484 103.096 43.292C103.282 43.094 103.504 42.944 103.762 42.842C104.026 42.734 104.317 42.68 104.635 42.68C104.911 42.68 105.16 42.725 105.382 42.815C105.61 42.905 105.802 43.034 105.958 43.202C106.12 43.364 106.243 43.565 106.327 43.805C106.417 44.039 106.462 44.3 106.462 44.588V45.038ZM105.508 44.39C105.508 44.246 105.49 44.111 105.454 43.985C105.418 43.859 105.364 43.751 105.292 43.661C105.22 43.565 105.124 43.49 105.004 43.436C104.89 43.376 104.752 43.346 104.59 43.346C104.29 43.346 104.044 43.442 103.852 43.634C103.666 43.826 103.552 44.084 103.51 44.408L105.508 44.39ZM112.073 46.316C112.367 46.316 112.61 46.292 112.802 46.244C113 46.19 113.186 46.121 113.36 46.037L113.567 46.784C113.375 46.874 113.153 46.946 112.901 47C112.649 47.06 112.34 47.09 111.974 47.09C111.584 47.09 111.218 47.027 110.876 46.901C110.54 46.769 110.246 46.58 109.994 46.334C109.748 46.082 109.553 45.776 109.409 45.416C109.265 45.05 109.193 44.633 109.193 44.165C109.193 43.709 109.262 43.301 109.4 42.941C109.538 42.575 109.73 42.266 109.976 42.014C110.228 41.762 110.525 41.57 110.867 41.438C111.215 41.306 111.596 41.24 112.01 41.24C112.388 41.24 112.697 41.273 112.937 41.339C113.183 41.399 113.399 41.48 113.585 41.582L113.36 42.311C113.156 42.221 112.961 42.149 112.775 42.095C112.595 42.041 112.379 42.014 112.127 42.014C111.869 42.014 111.623 42.053 111.389 42.131C111.161 42.209 110.96 42.335 110.786 42.509C110.618 42.683 110.483 42.908 110.381 43.184C110.279 43.454 110.228 43.781 110.228 44.165C110.228 44.549 110.276 44.879 110.372 45.155C110.474 45.425 110.606 45.647 110.768 45.821C110.936 45.989 111.131 46.115 111.353 46.199C111.581 46.277 111.821 46.316 112.073 46.316ZM118.264 44.831C118.264 45.185 118.207 45.503 118.093 45.785C117.985 46.067 117.835 46.304 117.643 46.496C117.451 46.688 117.226 46.835 116.968 46.937C116.71 47.039 116.431 47.09 116.131 47.09C115.831 47.09 115.552 47.042 115.294 46.946C115.042 46.85 114.82 46.712 114.628 46.532C114.442 46.346 114.295 46.118 114.187 45.848C114.085 45.578 114.034 45.269 114.034 44.921C114.034 44.561 114.088 44.243 114.196 43.967C114.31 43.691 114.463 43.457 114.655 43.265C114.847 43.073 115.072 42.929 115.33 42.833C115.588 42.731 115.867 42.68 116.167 42.68C116.467 42.68 116.743 42.728 116.995 42.824C117.253 42.914 117.475 43.049 117.661 43.229C117.853 43.409 118 43.634 118.102 43.904C118.21 44.174 118.264 44.483 118.264 44.831ZM117.301 44.876C117.301 44.606 117.268 44.378 117.202 44.192C117.136 44 117.049 43.844 116.941 43.724C116.833 43.604 116.71 43.517 116.572 43.463C116.434 43.409 116.29 43.382 116.14 43.382C115.996 43.382 115.855 43.406 115.717 43.454C115.579 43.502 115.456 43.583 115.348 43.697C115.24 43.811 115.153 43.964 115.087 44.156C115.027 44.348 114.997 44.588 114.997 44.876C114.997 45.14 115.03 45.368 115.096 45.56C115.162 45.752 115.249 45.911 115.357 46.037C115.465 46.157 115.588 46.247 115.726 46.307C115.87 46.361 116.014 46.388 116.158 46.388C116.302 46.388 116.443 46.364 116.581 46.316C116.719 46.268 116.842 46.187 116.95 46.073C117.058 45.953 117.142 45.797 117.202 45.605C117.268 45.407 117.301 45.164 117.301 44.876ZM120.117 47H119.19V42.752H119.91L120.036 43.319C120.234 43.121 120.447 42.965 120.675 42.851C120.903 42.737 121.17 42.68 121.476 42.68C121.782 42.68 122.031 42.74 122.223 42.86C122.421 42.98 122.571 43.148 122.673 43.364C122.877 43.148 123.102 42.98 123.348 42.86C123.6 42.74 123.876 42.68 124.176 42.68C124.62 42.68 124.953 42.803 125.175 43.049C125.403 43.289 125.517 43.631 125.517 44.075V47H124.59V44.219C124.59 43.961 124.533 43.763 124.419 43.625C124.311 43.487 124.131 43.418 123.879 43.418C123.495 43.418 123.141 43.589 122.817 43.931V47H121.89V44.219C121.89 43.961 121.833 43.763 121.719 43.625C121.611 43.487 121.431 43.418 121.179 43.418C120.795 43.418 120.441 43.598 120.117 43.958V47ZM128.541 47.09C128.361 47.09 128.187 47.066 128.019 47.018C127.851 46.97 127.707 46.904 127.587 46.82V49.07H126.669V42.698H127.416L127.533 43.229C127.701 43.073 127.89 42.944 128.1 42.842C128.31 42.734 128.553 42.68 128.829 42.68C129.393 42.68 129.837 42.863 130.161 43.229C130.485 43.595 130.647 44.114 130.647 44.786C130.647 45.176 130.587 45.518 130.467 45.812C130.353 46.1 130.197 46.34 129.999 46.532C129.807 46.718 129.582 46.859 129.324 46.955C129.072 47.045 128.811 47.09 128.541 47.09ZM128.604 43.409C128.376 43.409 128.172 43.466 127.992 43.58C127.818 43.688 127.683 43.802 127.587 43.922V46.109C127.833 46.295 128.112 46.388 128.424 46.388C128.58 46.388 128.733 46.361 128.883 46.307C129.033 46.253 129.168 46.163 129.288 46.037C129.408 45.911 129.504 45.749 129.576 45.551C129.648 45.347 129.684 45.101 129.684 44.813C129.684 44.387 129.594 44.048 129.414 43.796C129.24 43.538 128.97 43.409 128.604 43.409ZM131.619 43.13C131.895 42.98 132.159 42.869 132.411 42.797C132.669 42.719 132.954 42.68 133.266 42.68C133.506 42.68 133.725 42.707 133.923 42.761C134.127 42.815 134.301 42.902 134.445 43.022C134.589 43.142 134.7 43.304 134.778 43.508C134.862 43.706 134.904 43.949 134.904 44.237V47H134.157L134.058 46.541H134.031C133.863 46.733 133.668 46.874 133.446 46.964C133.224 47.048 132.978 47.09 132.708 47.09C132.282 47.09 131.937 46.976 131.673 46.748C131.415 46.52 131.286 46.217 131.286 45.839C131.286 45.605 131.334 45.404 131.43 45.236C131.526 45.062 131.661 44.918 131.835 44.804C132.009 44.69 132.216 44.606 132.456 44.552C132.696 44.492 132.96 44.462 133.248 44.462H133.968V44.138C133.968 43.868 133.896 43.682 133.752 43.58C133.608 43.472 133.41 43.418 133.158 43.418C133.002 43.418 132.825 43.445 132.627 43.499C132.435 43.547 132.213 43.64 131.961 43.778L131.619 43.13ZM133.977 45.074L133.41 45.083C132.984 45.095 132.684 45.17 132.51 45.308C132.336 45.446 132.249 45.608 132.249 45.794C132.249 45.914 132.267 46.013 132.303 46.091C132.345 46.169 132.399 46.232 132.465 46.28C132.531 46.328 132.606 46.364 132.69 46.388C132.78 46.406 132.87 46.415 132.96 46.415C133.146 46.415 133.329 46.37 133.509 46.28C133.695 46.184 133.851 46.049 133.977 45.875V45.074ZM136.949 47H136.022V42.752H136.751L136.877 43.319C137.087 43.115 137.306 42.959 137.534 42.851C137.768 42.737 138.032 42.68 138.326 42.68C138.776 42.68 139.124 42.803 139.37 43.049C139.616 43.295 139.739 43.646 139.739 44.102V47H138.812V44.219C138.812 43.973 138.749 43.778 138.623 43.634C138.497 43.49 138.308 43.418 138.056 43.418C137.864 43.418 137.672 43.466 137.48 43.562C137.294 43.652 137.117 43.784 136.949 43.958V47ZM140.36 42.752H141.359L142.214 45.047L142.52 46.064H142.538L142.835 45.038L143.609 42.752H144.554L142.943 47.288C142.763 47.798 142.532 48.212 142.25 48.53C141.974 48.854 141.611 49.094 141.161 49.25L140.765 48.521C141.065 48.407 141.326 48.242 141.548 48.026C141.77 47.816 141.935 47.54 142.043 47.198L142.115 46.991L140.36 42.752Z" fill="white"/>
</svg>
