<svg width="139" height="53" viewBox="0 0 139 53" fill="none" xmlns="http://www.w3.org/2000/svg">
<path d="M0.684 42.33H4.194V43.104H1.647V44.67H3.96V45.435H1.647V47.226H4.221V48H0.684V42.33ZM5.19173 44.13C5.46773 43.98 5.73173 43.869 5.98373 43.797C6.24173 43.719 6.52673 43.68 6.83873 43.68C7.07873 43.68 7.29773 43.707 7.49573 43.761C7.69973 43.815 7.87373 43.902 8.01773 44.022C8.16173 44.142 8.27273 44.304 8.35073 44.508C8.43473 44.706 8.47673 44.949 8.47673 45.237V48H7.72973L7.63073 47.541H7.60373C7.43573 47.733 7.24073 47.874 7.01873 47.964C6.79673 48.048 6.55073 48.09 6.28073 48.09C5.85473 48.09 5.50973 47.976 5.24573 47.748C4.98773 47.52 4.85873 47.217 4.85873 46.839C4.85873 46.605 4.90673 46.404 5.00273 46.236C5.09873 46.062 5.23373 45.918 5.40773 45.804C5.58173 45.69 5.78873 45.606 6.02873 45.552C6.26873 45.492 6.53273 45.462 6.82073 45.462H7.54073V45.138C7.54073 44.868 7.46873 44.682 7.32473 44.58C7.18073 44.472 6.98273 44.418 6.73073 44.418C6.57473 44.418 6.39773 44.445 6.19973 44.499C6.00773 44.547 5.78573 44.64 5.53373 44.778L5.19173 44.13ZM7.54973 46.074L6.98273 46.083C6.55673 46.095 6.25673 46.17 6.08273 46.308C5.90873 46.446 5.82173 46.608 5.82173 46.794C5.82173 46.914 5.83973 47.013 5.87573 47.091C5.91773 47.169 5.97173 47.232 6.03773 47.28C6.10373 47.328 6.17873 47.364 6.26273 47.388C6.35273 47.406 6.44273 47.415 6.53273 47.415C6.71873 47.415 6.90173 47.37 7.08173 47.28C7.26773 47.184 7.42373 47.049 7.54973 46.875V46.074ZM12.1297 44.616C11.9377 44.526 11.7577 44.463 11.5897 44.427C11.4277 44.385 11.2657 44.364 11.1037 44.364C10.8517 44.364 10.6597 44.412 10.5277 44.508C10.4017 44.598 10.3387 44.721 10.3387 44.877C10.3387 44.997 10.3867 45.102 10.4827 45.192C10.5787 45.276 10.7767 45.36 11.0767 45.444L11.3467 45.525C11.7367 45.645 12.0307 45.801 12.2287 45.993C12.4327 46.185 12.5347 46.443 12.5347 46.767C12.5347 47.163 12.3847 47.484 12.0847 47.73C11.7847 47.97 11.3737 48.09 10.8517 48.09C10.5697 48.09 10.3057 48.063 10.0597 48.009C9.81968 47.961 9.60368 47.892 9.41168 47.802L9.62768 47.1C9.80168 47.184 9.98768 47.253 10.1857 47.307C10.3837 47.361 10.5877 47.388 10.7977 47.388C11.0557 47.388 11.2567 47.343 11.4007 47.253C11.5447 47.163 11.6167 47.025 11.6167 46.839C11.6167 46.665 11.5507 46.542 11.4187 46.47C11.2927 46.392 11.0947 46.311 10.8247 46.227L10.5457 46.146C10.1677 46.02 9.88568 45.861 9.69968 45.669C9.51968 45.477 9.42968 45.225 9.42968 44.913C9.42968 44.727 9.46868 44.559 9.54668 44.409C9.62468 44.259 9.73268 44.13 9.87068 44.022C10.0087 43.914 10.1737 43.83 10.3657 43.77C10.5637 43.71 10.7797 43.68 11.0137 43.68C11.2357 43.68 11.4607 43.701 11.6887 43.743C11.9227 43.785 12.1387 43.851 12.3367 43.941L12.1297 44.616ZM15.7658 44.436H14.5598V46.731C14.5598 46.941 14.6078 47.082 14.7038 47.154C14.8058 47.226 14.9408 47.262 15.1088 47.262C15.2288 47.262 15.3548 47.25 15.4868 47.226C15.6248 47.196 15.7448 47.163 15.8468 47.127L15.9908 47.811C15.8708 47.859 15.7148 47.904 15.5228 47.946C15.3368 47.982 15.1388 48 14.9288 48C14.4728 48 14.1428 47.907 13.9388 47.721C13.7408 47.529 13.6418 47.247 13.6418 46.875V44.436H12.9938V43.752H13.6418V42.411H14.5598V43.752H15.7658V44.436ZM20.0291 45.777H21.7481L21.4151 44.859C21.3131 44.607 21.2231 44.373 21.1451 44.157C21.0731 43.935 20.9951 43.683 20.9111 43.401H20.8931C20.8031 43.665 20.7191 43.911 20.6411 44.139C20.5631 44.361 20.4731 44.604 20.3711 44.868L20.0291 45.777ZM20.4611 42.33H21.3791L23.5841 48H22.5761L22.0091 46.515H19.7861L19.2281 48H18.2291L20.4611 42.33ZM25.8394 41.565C26.0254 41.565 26.2144 41.592 26.4064 41.646C26.5984 41.694 26.7694 41.757 26.9194 41.835L26.7304 42.465C26.6164 42.417 26.5054 42.378 26.3974 42.348C26.2954 42.318 26.1844 42.303 26.0644 42.303C25.8004 42.303 25.6084 42.378 25.4884 42.528C25.3744 42.672 25.3174 42.924 25.3174 43.284V43.752H26.5414V44.436H25.3174V48H24.3994V44.436H23.7694V43.752H24.3994V43.032C24.3994 42.564 24.5254 42.204 24.7774 41.952C25.0294 41.694 25.3834 41.565 25.8394 41.565ZM27.1453 48V43.752H27.8473L27.9823 44.571C28.0843 44.319 28.2493 44.109 28.4773 43.941C28.7053 43.767 28.9813 43.68 29.3053 43.68C29.4493 43.68 29.5723 43.692 29.6743 43.716C29.7823 43.74 29.8783 43.773 29.9623 43.815L29.7913 44.589C29.7193 44.553 29.6353 44.523 29.5393 44.499C29.4493 44.475 29.3443 44.463 29.2243 44.463C28.8943 44.463 28.6183 44.577 28.3963 44.805C28.1743 45.027 28.0633 45.366 28.0633 45.822V48H27.1453ZM30.6108 48V43.752H31.5378V48H30.6108ZM31.0788 42.699C30.9168 42.699 30.7878 42.651 30.6918 42.555C30.5958 42.453 30.5478 42.327 30.5478 42.177C30.5478 42.027 30.5958 41.904 30.6918 41.808C30.7878 41.706 30.9168 41.655 31.0788 41.655C31.2348 41.655 31.3608 41.706 31.4568 41.808C31.5588 41.904 31.6098 42.027 31.6098 42.177C31.6098 42.333 31.5588 42.459 31.4568 42.555C31.3608 42.651 31.2348 42.699 31.0788 42.699ZM34.9025 47.388C35.0945 47.388 35.2625 47.367 35.4065 47.325C35.5565 47.277 35.6915 47.223 35.8115 47.163L36.0005 47.829C35.8565 47.907 35.6825 47.97 35.4785 48.018C35.2745 48.066 35.0495 48.09 34.8035 48.09C34.4915 48.09 34.1975 48.045 33.9215 47.955C33.6515 47.859 33.4145 47.721 33.2105 47.541C33.0125 47.355 32.8535 47.124 32.7335 46.848C32.6195 46.572 32.5625 46.251 32.5625 45.885C32.5625 45.549 32.6165 45.246 32.7245 44.976C32.8325 44.7 32.9855 44.466 33.1835 44.274C33.3815 44.082 33.6185 43.935 33.8945 43.833C34.1705 43.731 34.4735 43.68 34.8035 43.68C34.9895 43.68 35.1755 43.695 35.3615 43.725C35.5535 43.755 35.7635 43.824 35.9915 43.932L35.7845 44.607C35.5025 44.451 35.2085 44.373 34.9025 44.373C34.4885 44.373 34.1525 44.502 33.8945 44.76C33.6365 45.018 33.5075 45.384 33.5075 45.858C33.5075 46.146 33.5465 46.389 33.6245 46.587C33.7085 46.779 33.8165 46.935 33.9485 47.055C34.0805 47.175 34.2275 47.262 34.3895 47.316C34.5575 47.364 34.7285 47.388 34.9025 47.388ZM36.8148 44.13C37.0908 43.98 37.3548 43.869 37.6068 43.797C37.8648 43.719 38.1498 43.68 38.4618 43.68C38.7018 43.68 38.9208 43.707 39.1188 43.761C39.3228 43.815 39.4968 43.902 39.6408 44.022C39.7848 44.142 39.8958 44.304 39.9738 44.508C40.0578 44.706 40.0998 44.949 40.0998 45.237V48H39.3528L39.2538 47.541H39.2268C39.0588 47.733 38.8638 47.874 38.6418 47.964C38.4198 48.048 38.1738 48.09 37.9038 48.09C37.4778 48.09 37.1328 47.976 36.8688 47.748C36.6108 47.52 36.4818 47.217 36.4818 46.839C36.4818 46.605 36.5298 46.404 36.6258 46.236C36.7218 46.062 36.8568 45.918 37.0308 45.804C37.2048 45.69 37.4118 45.606 37.6518 45.552C37.8918 45.492 38.1558 45.462 38.4438 45.462H39.1638V45.138C39.1638 44.868 39.0918 44.682 38.9478 44.58C38.8038 44.472 38.6058 44.418 38.3538 44.418C38.1978 44.418 38.0208 44.445 37.8228 44.499C37.6308 44.547 37.4088 44.64 37.1568 44.778L36.8148 44.13ZM39.1728 46.074L38.6058 46.083C38.1798 46.095 37.8798 46.17 37.7058 46.308C37.5318 46.446 37.4448 46.608 37.4448 46.794C37.4448 46.914 37.4628 47.013 37.4988 47.091C37.5408 47.169 37.5948 47.232 37.6608 47.28C37.7268 47.328 37.8018 47.364 37.8858 47.388C37.9758 47.406 38.0658 47.415 38.1558 47.415C38.3418 47.415 38.5248 47.37 38.7048 47.28C38.8908 47.184 39.0468 47.049 39.1728 46.875V46.074ZM42.1438 48H41.2168V43.752H41.9458L42.0718 44.319C42.2818 44.115 42.5008 43.959 42.7288 43.851C42.9628 43.737 43.2268 43.68 43.5208 43.68C43.9708 43.68 44.3188 43.803 44.5648 44.049C44.8108 44.295 44.9338 44.646 44.9338 45.102V48H44.0068V45.219C44.0068 44.973 43.9438 44.778 43.8178 44.634C43.6918 44.49 43.5028 44.418 43.2508 44.418C43.0588 44.418 42.8668 44.466 42.6748 44.562C42.4888 44.652 42.3118 44.784 42.1438 44.958V48ZM50.7976 42.24C51.4576 42.24 52.0096 42.351 52.4536 42.573L52.2376 43.284C52.0216 43.182 51.8026 43.107 51.5806 43.059C51.3646 43.011 51.1396 42.987 50.9056 42.987C50.6476 42.987 50.4016 43.026 50.1676 43.104C49.9396 43.182 49.7356 43.308 49.5556 43.482C49.3816 43.656 49.2406 43.881 49.1326 44.157C49.0306 44.433 48.9796 44.772 48.9796 45.174C48.9796 45.876 49.1386 46.413 49.4566 46.785C49.7746 47.151 50.2246 47.334 50.8066 47.334C51.0106 47.334 51.1846 47.325 51.3286 47.307C51.4786 47.283 51.6196 47.247 51.7516 47.199V45.705H50.7256V44.967H52.6606V47.748C52.4206 47.844 52.1506 47.925 51.8506 47.991C51.5506 48.057 51.1996 48.09 50.7976 48.09C50.4016 48.09 50.0296 48.027 49.6816 47.901C49.3336 47.775 49.0306 47.589 48.7726 47.343C48.5146 47.097 48.3106 46.794 48.1606 46.434C48.0166 46.068 47.9446 45.648 47.9446 45.174C47.9446 44.7 48.0166 44.28 48.1606 43.914C48.3046 43.548 48.5026 43.242 48.7546 42.996C49.0126 42.744 49.3156 42.555 49.6636 42.429C50.0116 42.303 50.3896 42.24 50.7976 42.24ZM57.4223 46.038H54.4433V46.074C54.4433 46.506 54.5693 46.833 54.8213 47.055C55.0733 47.277 55.4063 47.388 55.8203 47.388C56.0483 47.388 56.2523 47.37 56.4323 47.334C56.6183 47.292 56.8043 47.229 56.9903 47.145L57.1703 47.82C56.9963 47.898 56.7893 47.961 56.5493 48.009C56.3093 48.063 56.0453 48.09 55.7573 48.09C55.4513 48.09 55.1603 48.048 54.8843 47.964C54.6083 47.88 54.3653 47.748 54.1553 47.568C53.9513 47.388 53.7893 47.16 53.6693 46.884C53.5493 46.608 53.4893 46.278 53.4893 45.894C53.4893 45.564 53.5373 45.264 53.6333 44.994C53.7353 44.718 53.8763 44.484 54.0563 44.292C54.2423 44.094 54.4643 43.944 54.7223 43.842C54.9863 43.734 55.2773 43.68 55.5953 43.68C55.8713 43.68 56.1203 43.725 56.3423 43.815C56.5703 43.905 56.7623 44.034 56.9183 44.202C57.0803 44.364 57.2033 44.565 57.2873 44.805C57.3773 45.039 57.4223 45.3 57.4223 45.588V46.038ZM56.4683 45.39C56.4683 45.246 56.4503 45.111 56.4143 44.985C56.3783 44.859 56.3243 44.751 56.2523 44.661C56.1803 44.565 56.0843 44.49 55.9643 44.436C55.8503 44.376 55.7123 44.346 55.5503 44.346C55.2503 44.346 55.0043 44.442 54.8123 44.634C54.6263 44.826 54.5123 45.084 54.4703 45.408L56.4683 45.39ZM59.2474 48H58.3204V43.752H59.0494L59.1754 44.319C59.3854 44.115 59.6044 43.959 59.8324 43.851C60.0664 43.737 60.3304 43.68 60.6244 43.68C61.0744 43.68 61.4224 43.803 61.6684 44.049C61.9144 44.295 62.0374 44.646 62.0374 45.102V48H61.1104V45.219C61.1104 44.973 61.0474 44.778 60.9214 44.634C60.7954 44.49 60.6064 44.418 60.3544 44.418C60.1624 44.418 59.9704 44.466 59.7784 44.562C59.5924 44.652 59.4154 44.784 59.2474 44.958V48ZM66.8969 46.038H63.9179V46.074C63.9179 46.506 64.0439 46.833 64.2959 47.055C64.5479 47.277 64.8809 47.388 65.2949 47.388C65.5229 47.388 65.7269 47.37 65.9069 47.334C66.0929 47.292 66.2789 47.229 66.4649 47.145L66.6449 47.82C66.4709 47.898 66.2639 47.961 66.0239 48.009C65.7839 48.063 65.5199 48.09 65.2319 48.09C64.9259 48.09 64.6349 48.048 64.3589 47.964C64.0829 47.88 63.8399 47.748 63.6299 47.568C63.4259 47.388 63.2639 47.16 63.1439 46.884C63.0239 46.608 62.9639 46.278 62.9639 45.894C62.9639 45.564 63.0119 45.264 63.1079 44.994C63.2099 44.718 63.3509 44.484 63.5309 44.292C63.7169 44.094 63.9389 43.944 64.1969 43.842C64.4609 43.734 64.7519 43.68 65.0699 43.68C65.3459 43.68 65.5949 43.725 65.8169 43.815C66.0449 43.905 66.2369 44.034 66.3929 44.202C66.5549 44.364 66.6779 44.565 66.7619 44.805C66.8519 45.039 66.8969 45.3 66.8969 45.588V46.038ZM65.9429 45.39C65.9429 45.246 65.9249 45.111 65.8889 44.985C65.8529 44.859 65.7989 44.751 65.7269 44.661C65.6549 44.565 65.5589 44.49 65.4389 44.436C65.3249 44.376 65.1869 44.346 65.0249 44.346C64.7249 44.346 64.4789 44.442 64.2869 44.634C64.1009 44.826 63.9869 45.084 63.9449 45.408L65.9429 45.39ZM67.786 48V43.752H68.488L68.623 44.571C68.725 44.319 68.89 44.109 69.118 43.941C69.346 43.767 69.622 43.68 69.946 43.68C70.09 43.68 70.213 43.692 70.315 43.716C70.423 43.74 70.519 43.773 70.603 43.815L70.432 44.589C70.36 44.553 70.276 44.523 70.18 44.499C70.09 44.475 69.985 44.463 69.865 44.463C69.535 44.463 69.259 44.577 69.037 44.805C68.815 45.027 68.704 45.366 68.704 45.822V48H67.786ZM71.1185 44.13C71.3945 43.98 71.6585 43.869 71.9105 43.797C72.1685 43.719 72.4535 43.68 72.7655 43.68C73.0055 43.68 73.2245 43.707 73.4225 43.761C73.6265 43.815 73.8005 43.902 73.9445 44.022C74.0885 44.142 74.1995 44.304 74.2775 44.508C74.3615 44.706 74.4035 44.949 74.4035 45.237V48H73.6565L73.5575 47.541H73.5305C73.3625 47.733 73.1675 47.874 72.9455 47.964C72.7235 48.048 72.4775 48.09 72.2075 48.09C71.7815 48.09 71.4365 47.976 71.1725 47.748C70.9145 47.52 70.7855 47.217 70.7855 46.839C70.7855 46.605 70.8335 46.404 70.9295 46.236C71.0255 46.062 71.1605 45.918 71.3345 45.804C71.5085 45.69 71.7155 45.606 71.9555 45.552C72.1955 45.492 72.4595 45.462 72.7475 45.462H73.4675V45.138C73.4675 44.868 73.3955 44.682 73.2515 44.58C73.1075 44.472 72.9095 44.418 72.6575 44.418C72.5015 44.418 72.3245 44.445 72.1265 44.499C71.9345 44.547 71.7125 44.64 71.4605 44.778L71.1185 44.13ZM73.4765 46.074L72.9095 46.083C72.4835 46.095 72.1835 46.17 72.0095 46.308C71.8355 46.446 71.7485 46.608 71.7485 46.794C71.7485 46.914 71.7665 47.013 71.8025 47.091C71.8445 47.169 71.8985 47.232 71.9645 47.28C72.0305 47.328 72.1055 47.364 72.1895 47.388C72.2795 47.406 72.3695 47.415 72.4595 47.415C72.6455 47.415 72.8285 47.37 73.0085 47.28C73.1945 47.184 73.3505 47.049 73.4765 46.875V46.074ZM75.6444 48V41.601H76.5534V48H75.6444ZM83.6618 42.33V43.122H81.9518V48H80.9888V43.122H79.3058V42.33H83.6618ZM84.1424 48V43.752H84.8444L84.9794 44.571C85.0814 44.319 85.2464 44.109 85.4744 43.941C85.7024 43.767 85.9784 43.68 86.3024 43.68C86.4464 43.68 86.5694 43.692 86.6714 43.716C86.7794 43.74 86.8754 43.773 86.9594 43.815L86.7884 44.589C86.7164 44.553 86.6324 44.523 86.5364 44.499C86.4464 44.475 86.3414 44.463 86.2214 44.463C85.8914 44.463 85.6154 44.577 85.3934 44.805C85.1714 45.027 85.0604 45.366 85.0604 45.822V48H84.1424ZM87.4749 44.13C87.7509 43.98 88.0149 43.869 88.2669 43.797C88.5249 43.719 88.8099 43.68 89.1219 43.68C89.3619 43.68 89.5809 43.707 89.7789 43.761C89.9829 43.815 90.1569 43.902 90.3009 44.022C90.4449 44.142 90.5559 44.304 90.6339 44.508C90.7179 44.706 90.7599 44.949 90.7599 45.237V48H90.0129L89.9139 47.541H89.8869C89.7189 47.733 89.5239 47.874 89.3019 47.964C89.0799 48.048 88.8339 48.09 88.5639 48.09C88.1379 48.09 87.7929 47.976 87.5289 47.748C87.2709 47.52 87.1419 47.217 87.1419 46.839C87.1419 46.605 87.1899 46.404 87.2859 46.236C87.3819 46.062 87.5169 45.918 87.6909 45.804C87.8649 45.69 88.0719 45.606 88.3119 45.552C88.5519 45.492 88.8159 45.462 89.1039 45.462H89.8239V45.138C89.8239 44.868 89.7519 44.682 89.6079 44.58C89.4639 44.472 89.2659 44.418 89.0139 44.418C88.8579 44.418 88.6809 44.445 88.4829 44.499C88.2909 44.547 88.0689 44.64 87.8169 44.778L87.4749 44.13ZM89.8329 46.074L89.2659 46.083C88.8399 46.095 88.5399 46.17 88.3659 46.308C88.1919 46.446 88.1049 46.608 88.1049 46.794C88.1049 46.914 88.1229 47.013 88.1589 47.091C88.2009 47.169 88.2549 47.232 88.3209 47.28C88.3869 47.328 88.4619 47.364 88.5459 47.388C88.6359 47.406 88.7259 47.415 88.8159 47.415C89.0019 47.415 89.1849 47.37 89.3649 47.28C89.5509 47.184 89.7069 47.049 89.8329 46.875V46.074ZM94.676 41.601H95.603V48H94.874L94.766 47.532H94.73C94.574 47.712 94.4 47.85 94.208 47.946C94.016 48.042 93.767 48.09 93.461 48.09C93.221 48.09 92.99 48.045 92.768 47.955C92.552 47.859 92.357 47.718 92.183 47.532C92.015 47.346 91.88 47.115 91.778 46.839C91.676 46.563 91.625 46.245 91.625 45.885C91.625 45.549 91.667 45.246 91.751 44.976C91.841 44.706 91.967 44.475 92.129 44.283C92.297 44.091 92.501 43.944 92.741 43.842C92.981 43.734 93.254 43.68 93.56 43.68C93.77 43.68 93.974 43.713 94.172 43.779C94.37 43.845 94.538 43.938 94.676 44.058V41.601ZM94.676 44.805C94.424 44.517 94.121 44.373 93.767 44.373C93.611 44.373 93.461 44.4 93.317 44.454C93.173 44.508 93.044 44.595 92.93 44.715C92.816 44.835 92.726 44.988 92.66 45.174C92.594 45.36 92.561 45.588 92.561 45.858C92.561 46.128 92.591 46.359 92.651 46.551C92.717 46.743 92.801 46.902 92.903 47.028C93.005 47.154 93.122 47.247 93.254 47.307C93.392 47.361 93.533 47.388 93.677 47.388C93.893 47.388 94.082 47.34 94.244 47.244C94.412 47.148 94.556 47.013 94.676 46.839V44.805ZM100.462 46.038H97.4833V46.074C97.4833 46.506 97.6093 46.833 97.8613 47.055C98.1133 47.277 98.4463 47.388 98.8603 47.388C99.0883 47.388 99.2923 47.37 99.4723 47.334C99.6583 47.292 99.8443 47.229 100.03 47.145L100.21 47.82C100.036 47.898 99.8293 47.961 99.5893 48.009C99.3493 48.063 99.0853 48.09 98.7973 48.09C98.4913 48.09 98.2003 48.048 97.9243 47.964C97.6483 47.88 97.4053 47.748 97.1953 47.568C96.9913 47.388 96.8293 47.16 96.7093 46.884C96.5893 46.608 96.5293 46.278 96.5293 45.894C96.5293 45.564 96.5773 45.264 96.6733 44.994C96.7753 44.718 96.9163 44.484 97.0963 44.292C97.2823 44.094 97.5043 43.944 97.7623 43.842C98.0263 43.734 98.3173 43.68 98.6353 43.68C98.9113 43.68 99.1603 43.725 99.3823 43.815C99.6103 43.905 99.8023 44.034 99.9583 44.202C100.12 44.364 100.243 44.565 100.327 44.805C100.417 45.039 100.462 45.3 100.462 45.588V46.038ZM99.5083 45.39C99.5083 45.246 99.4903 45.111 99.4543 44.985C99.4183 44.859 99.3643 44.751 99.2923 44.661C99.2203 44.565 99.1243 44.49 99.0043 44.436C98.8903 44.376 98.7523 44.346 98.5903 44.346C98.2903 44.346 98.0443 44.442 97.8523 44.634C97.6663 44.826 97.5523 45.084 97.5103 45.408L99.5083 45.39ZM106.073 47.316C106.367 47.316 106.61 47.292 106.802 47.244C107 47.19 107.186 47.121 107.36 47.037L107.567 47.784C107.375 47.874 107.153 47.946 106.901 48C106.649 48.06 106.34 48.09 105.974 48.09C105.584 48.09 105.218 48.027 104.876 47.901C104.54 47.769 104.246 47.58 103.994 47.334C103.748 47.082 103.553 46.776 103.409 46.416C103.265 46.05 103.193 45.633 103.193 45.165C103.193 44.709 103.262 44.301 103.4 43.941C103.538 43.575 103.73 43.266 103.976 43.014C104.228 42.762 104.525 42.57 104.867 42.438C105.215 42.306 105.596 42.24 106.01 42.24C106.388 42.24 106.697 42.273 106.937 42.339C107.183 42.399 107.399 42.48 107.585 42.582L107.36 43.311C107.156 43.221 106.961 43.149 106.775 43.095C106.595 43.041 106.379 43.014 106.127 43.014C105.869 43.014 105.623 43.053 105.389 43.131C105.161 43.209 104.96 43.335 104.786 43.509C104.618 43.683 104.483 43.908 104.381 44.184C104.279 44.454 104.228 44.781 104.228 45.165C104.228 45.549 104.276 45.879 104.372 46.155C104.474 46.425 104.606 46.647 104.768 46.821C104.936 46.989 105.131 47.115 105.353 47.199C105.581 47.277 105.821 47.316 106.073 47.316ZM112.264 45.831C112.264 46.185 112.207 46.503 112.093 46.785C111.985 47.067 111.835 47.304 111.643 47.496C111.451 47.688 111.226 47.835 110.968 47.937C110.71 48.039 110.431 48.09 110.131 48.09C109.831 48.09 109.552 48.042 109.294 47.946C109.042 47.85 108.82 47.712 108.628 47.532C108.442 47.346 108.295 47.118 108.187 46.848C108.085 46.578 108.034 46.269 108.034 45.921C108.034 45.561 108.088 45.243 108.196 44.967C108.31 44.691 108.463 44.457 108.655 44.265C108.847 44.073 109.072 43.929 109.33 43.833C109.588 43.731 109.867 43.68 110.167 43.68C110.467 43.68 110.743 43.728 110.995 43.824C111.253 43.914 111.475 44.049 111.661 44.229C111.853 44.409 112 44.634 112.102 44.904C112.21 45.174 112.264 45.483 112.264 45.831ZM111.301 45.876C111.301 45.606 111.268 45.378 111.202 45.192C111.136 45 111.049 44.844 110.941 44.724C110.833 44.604 110.71 44.517 110.572 44.463C110.434 44.409 110.29 44.382 110.14 44.382C109.996 44.382 109.855 44.406 109.717 44.454C109.579 44.502 109.456 44.583 109.348 44.697C109.24 44.811 109.153 44.964 109.087 45.156C109.027 45.348 108.997 45.588 108.997 45.876C108.997 46.14 109.03 46.368 109.096 46.56C109.162 46.752 109.249 46.911 109.357 47.037C109.465 47.157 109.588 47.247 109.726 47.307C109.87 47.361 110.014 47.388 110.158 47.388C110.302 47.388 110.443 47.364 110.581 47.316C110.719 47.268 110.842 47.187 110.95 47.073C111.058 46.953 111.142 46.797 111.202 46.605C111.268 46.407 111.301 46.164 111.301 45.876ZM114.117 48H113.19V43.752H113.91L114.036 44.319C114.234 44.121 114.447 43.965 114.675 43.851C114.903 43.737 115.17 43.68 115.476 43.68C115.782 43.68 116.031 43.74 116.223 43.86C116.421 43.98 116.571 44.148 116.673 44.364C116.877 44.148 117.102 43.98 117.348 43.86C117.6 43.74 117.876 43.68 118.176 43.68C118.62 43.68 118.953 43.803 119.175 44.049C119.403 44.289 119.517 44.631 119.517 45.075V48H118.59V45.219C118.59 44.961 118.533 44.763 118.419 44.625C118.311 44.487 118.131 44.418 117.879 44.418C117.495 44.418 117.141 44.589 116.817 44.931V48H115.89V45.219C115.89 44.961 115.833 44.763 115.719 44.625C115.611 44.487 115.431 44.418 115.179 44.418C114.795 44.418 114.441 44.598 114.117 44.958V48ZM122.541 48.09C122.361 48.09 122.187 48.066 122.019 48.018C121.851 47.97 121.707 47.904 121.587 47.82V50.07H120.669V43.698H121.416L121.533 44.229C121.701 44.073 121.89 43.944 122.1 43.842C122.31 43.734 122.553 43.68 122.829 43.68C123.393 43.68 123.837 43.863 124.161 44.229C124.485 44.595 124.647 45.114 124.647 45.786C124.647 46.176 124.587 46.518 124.467 46.812C124.353 47.1 124.197 47.34 123.999 47.532C123.807 47.718 123.582 47.859 123.324 47.955C123.072 48.045 122.811 48.09 122.541 48.09ZM122.604 44.409C122.376 44.409 122.172 44.466 121.992 44.58C121.818 44.688 121.683 44.802 121.587 44.922V47.109C121.833 47.295 122.112 47.388 122.424 47.388C122.58 47.388 122.733 47.361 122.883 47.307C123.033 47.253 123.168 47.163 123.288 47.037C123.408 46.911 123.504 46.749 123.576 46.551C123.648 46.347 123.684 46.101 123.684 45.813C123.684 45.387 123.594 45.048 123.414 44.796C123.24 44.538 122.97 44.409 122.604 44.409ZM125.619 44.13C125.895 43.98 126.159 43.869 126.411 43.797C126.669 43.719 126.954 43.68 127.266 43.68C127.506 43.68 127.725 43.707 127.923 43.761C128.127 43.815 128.301 43.902 128.445 44.022C128.589 44.142 128.7 44.304 128.778 44.508C128.862 44.706 128.904 44.949 128.904 45.237V48H128.157L128.058 47.541H128.031C127.863 47.733 127.668 47.874 127.446 47.964C127.224 48.048 126.978 48.09 126.708 48.09C126.282 48.09 125.937 47.976 125.673 47.748C125.415 47.52 125.286 47.217 125.286 46.839C125.286 46.605 125.334 46.404 125.43 46.236C125.526 46.062 125.661 45.918 125.835 45.804C126.009 45.69 126.216 45.606 126.456 45.552C126.696 45.492 126.96 45.462 127.248 45.462H127.968V45.138C127.968 44.868 127.896 44.682 127.752 44.58C127.608 44.472 127.41 44.418 127.158 44.418C127.002 44.418 126.825 44.445 126.627 44.499C126.435 44.547 126.213 44.64 125.961 44.778L125.619 44.13ZM127.977 46.074L127.41 46.083C126.984 46.095 126.684 46.17 126.51 46.308C126.336 46.446 126.249 46.608 126.249 46.794C126.249 46.914 126.267 47.013 126.303 47.091C126.345 47.169 126.399 47.232 126.465 47.28C126.531 47.328 126.606 47.364 126.69 47.388C126.78 47.406 126.87 47.415 126.96 47.415C127.146 47.415 127.329 47.37 127.509 47.28C127.695 47.184 127.851 47.049 127.977 46.875V46.074ZM130.949 48H130.022V43.752H130.751L130.877 44.319C131.087 44.115 131.306 43.959 131.534 43.851C131.768 43.737 132.032 43.68 132.326 43.68C132.776 43.68 133.124 43.803 133.37 44.049C133.616 44.295 133.739 44.646 133.739 45.102V48H132.812V45.219C132.812 44.973 132.749 44.778 132.623 44.634C132.497 44.49 132.308 44.418 132.056 44.418C131.864 44.418 131.672 44.466 131.48 44.562C131.294 44.652 131.117 44.784 130.949 44.958V48ZM134.36 43.752H135.359L136.214 46.047L136.52 47.064H136.538L136.835 46.038L137.609 43.752H138.554L136.943 48.288C136.763 48.798 136.532 49.212 136.25 49.53C135.974 49.854 135.611 50.094 135.161 50.25L134.765 49.521C135.065 49.407 135.326 49.242 135.548 49.026C135.77 48.816 135.935 48.54 136.043 48.198L136.115 47.991L134.36 43.752Z" fill="#795458"/>
<rect width="139" height="38" fill="#FFC94A"/>
<path d="M5.25 4.5H26V10.5H14.25V15.7H24.15V21.1H14.25V26.9H25.95V33H5.25V4.5ZM46.3164 26.75H38.0164L36.5164 33H27.3164L36.5164 4.5H48.2664L57.0664 33H47.8164L46.3164 26.75ZM42.1164 10.65L39.1664 21.2H45.1164L42.3164 10.65H42.1164ZM83.7203 17.2V31.45C81.487 32.1833 79.3703 32.7167 77.3703 33.05C75.3703 33.3833 73.687 33.55 72.3203 33.55C67.787 33.55 64.237 32.3667 61.6703 30C59.1036 27.6333 57.8203 24 57.8203 19.1C57.8203 14.1 59.1703 10.3667 61.8703 7.9C64.5703 5.4 68.3703 4.15 73.2703 4.15C75.837 4.15 78.9203 4.53333 82.5203 5.3C82.5203 5.96667 82.4536 6.96667 82.3203 8.3C82.187 9.6 82.0536 10.5167 81.9203 11.05L80.1203 11C77.9203 10.9333 76.2036 10.9 74.9703 10.9C71.2703 10.9 69.2536 11.1167 68.9203 11.55C68.387 12.1833 68.0036 13.1667 67.7703 14.5C67.5703 15.8333 67.4703 17.1167 67.4703 18.35C67.4703 20.5833 67.7203 22.3167 68.2203 23.55C68.7203 24.7833 69.487 25.65 70.5203 26.15C71.5536 26.65 72.9536 26.9 74.7203 26.9H74.9203V17.2H83.7203ZM101.798 33H92.7977V10.75H84.7477V4.5H109.848V10.75H101.798V33ZM134.344 32.05C133.111 32.5833 131.677 32.9667 130.044 33.2C128.411 33.4333 126.894 33.55 125.494 33.55C120.961 33.55 117.411 32.3667 114.844 30C112.277 27.6333 110.994 24 110.994 19.1C110.994 14.1 112.344 10.3667 115.044 7.9C117.744 5.4 121.544 4.15 126.444 4.15C128.777 4.15 131.211 4.46667 133.744 5.1C133.744 5.76666 133.677 6.76666 133.544 8.1C133.411 9.4 133.277 10.3167 133.144 10.85H129.994C127.694 10.85 125.877 10.9 124.544 11C123.244 11.0667 122.461 11.2167 122.194 11.45C121.694 11.9167 121.311 12.8667 121.044 14.3C120.777 15.7 120.644 17.05 120.644 18.35C120.644 20.6167 120.927 22.3667 121.494 23.6C122.061 24.8 122.777 25.6 123.644 26C124.477 26.4 125.861 26.6 127.794 26.6C129.327 26.6 131.327 26.4667 133.794 26.2L134.344 32.05Z" fill="#795458"/>
</svg>
